<svg width="26" height="30" viewBox="0 0 26 30" fill="none" xmlns="http://www.w3.org/2000/svg">
<path d="M20.5833 8.125C18.7958 8.125 17.3333 7.5625 17.3333 6.875V8.125C17.3333 8.8125 18.7958 9.375 20.5833 9.375C22.3708 9.375 23.8333 8.8125 23.8333 8.125V6.875C23.8333 7.5625 22.3708 8.125 20.5833 8.125Z" fill="#FFA000"/>
<path d="M20.5833 6.25C18.7958 6.25 17.3333 5.6875 17.3333 5V6.25C17.3333 6.9375 18.7958 7.5 20.5833 7.5C22.3708 7.5 23.8333 6.9375 23.8333 6.25V5C23.8333 5.6875 22.3708 6.25 20.5833 6.25ZM20.5833 10C18.7958 10 17.3333 9.4375 17.3333 8.75V10C17.3333 10.6875 18.7958 11.25 20.5833 11.25C22.3708 11.25 23.8333 10.6875 23.8333 10V8.75C23.8333 9.4375 22.3708 10 20.5833 10Z" fill="#FFA000"/>
<path d="M20.5833 11.875C18.7958 11.875 17.3333 11.3125 17.3333 10.625V11.875C17.3333 12.5625 18.7958 13.125 20.5833 13.125C22.3708 13.125 23.8333 12.5625 23.8333 11.875V10.625C23.8333 11.3125 22.3708 11.875 20.5833 11.875Z" fill="#FFA000"/>
<path d="M20.5833 13.75C18.7958 13.75 17.3333 13.1875 17.3333 12.5V13.75C17.3333 14.4375 18.7958 15 20.5833 15C22.3708 15 23.8333 14.4375 23.8333 13.75V12.5C23.8333 13.1875 22.3708 13.75 20.5833 13.75Z" fill="#FFA000"/>
<path d="M20.5833 15.625C18.7958 15.625 17.3333 15.0625 17.3333 14.375V15.625C17.3333 16.3125 18.7958 16.875 20.5833 16.875C22.3708 16.875 23.8333 16.3125 23.8333 15.625V14.375C23.8333 15.0625 22.3708 15.625 20.5833 15.625Z" fill="#FFA000"/>
<path d="M20.5833 17.5C18.7958 17.5 17.3333 16.9375 17.3333 16.25V17.5C17.3333 18.1875 18.7958 18.75 20.5833 18.75C22.3708 18.75 23.8333 18.1875 23.8333 17.5V16.25C23.8333 16.9375 22.3708 17.5 20.5833 17.5Z" fill="#FFA000"/>
<path d="M20.5833 19.375C18.7958 19.375 17.3333 18.8125 17.3333 18.125V19.375C17.3333 20.0625 18.7958 20.625 20.5833 20.625C22.3708 20.625 23.8333 20.0625 23.8333 19.375V18.125C23.8333 18.8125 22.3708 19.375 20.5833 19.375Z" fill="#FFA000"/>
<path d="M20.5833 21.25C18.7958 21.25 17.3333 20.6875 17.3333 20V21.25C17.3333 21.9375 18.7958 22.5 20.5833 22.5C22.3708 22.5 23.8333 21.9375 23.8333 21.25V20C23.8333 20.6875 22.3708 21.25 20.5833 21.25Z" fill="#FFA000"/>
<path d="M20.5833 23.125C18.7958 23.125 17.3333 22.5625 17.3333 21.875V23.125C17.3333 23.8125 18.7958 24.375 20.5833 24.375C22.3708 24.375 23.8333 23.8125 23.8333 23.125V21.875C23.8333 22.5625 22.3708 23.125 20.5833 23.125Z" fill="#FFA000"/>
<path d="M20.5833 25C18.7958 25 17.3333 24.4375 17.3333 23.75V25C17.3333 25.6875 18.7958 26.25 20.5833 26.25C22.3708 26.25 23.8333 25.6875 23.8333 25V23.75C23.8333 24.4375 22.3708 25 20.5833 25Z" fill="#FFA000"/>
<path d="M20.5833 6.25C22.3782 6.25 23.8333 5.69036 23.8333 5C23.8333 4.30964 22.3782 3.75 20.5833 3.75C18.7884 3.75 17.3333 4.30964 17.3333 5C17.3333 5.69036 18.7884 6.25 20.5833 6.25Z" fill="#FFC107"/>
<path d="M20.5833 7.5C19.0666 7.5 17.8208 7.125 17.4416 6.5625C17.3875 6.6875 17.3333 6.75 17.3333 6.875C17.3333 7.5625 18.7958 8.125 20.5833 8.125C22.3708 8.125 23.8333 7.5625 23.8333 6.875C23.8333 6.75 23.7791 6.6875 23.725 6.5625C23.3458 7.125 22.1 7.5 20.5833 7.5ZM20.5833 9.375C19.0666 9.375 17.8208 9 17.4416 8.4375C17.3875 8.5625 17.3333 8.625 17.3333 8.75C17.3333 9.4375 18.7958 10 20.5833 10C22.3708 10 23.8333 9.4375 23.8333 8.75C23.8333 8.625 23.7791 8.5625 23.725 8.4375C23.3458 9 22.1 9.375 20.5833 9.375ZM20.5833 11.25C19.0666 11.25 17.8208 10.875 17.4416 10.3125C17.3875 10.4375 17.3333 10.5 17.3333 10.625C17.3333 11.3125 18.7958 11.875 20.5833 11.875C22.3708 11.875 23.8333 11.3125 23.8333 10.625C23.8333 10.5 23.7791 10.4375 23.725 10.3125C23.3458 10.875 22.1 11.25 20.5833 11.25ZM20.5833 13.125C19.0666 13.125 17.8208 12.75 17.4416 12.1875C17.3875 12.3125 17.3333 12.375 17.3333 12.5C17.3333 13.1875 18.7958 13.75 20.5833 13.75C22.3708 13.75 23.8333 13.1875 23.8333 12.5C23.8333 12.375 23.7791 12.3125 23.725 12.1875C23.3458 12.75 22.1 13.125 20.5833 13.125ZM20.5833 15C19.0666 15 17.8208 14.625 17.4416 14.0625C17.3875 14.1875 17.3333 14.25 17.3333 14.375C17.3333 15.0625 18.7958 15.625 20.5833 15.625C22.3708 15.625 23.8333 15.0625 23.8333 14.375C23.8333 14.25 23.7791 14.1875 23.725 14.0625C23.3458 14.625 22.1 15 20.5833 15ZM20.5833 16.875C19.0666 16.875 17.8208 16.5 17.4416 15.9375C17.3875 16.0625 17.3333 16.125 17.3333 16.25C17.3333 16.9375 18.7958 17.5 20.5833 17.5C22.3708 17.5 23.8333 16.9375 23.8333 16.25C23.8333 16.125 23.7791 16.0625 23.725 15.9375C23.3458 16.5 22.1 16.875 20.5833 16.875ZM20.5833 18.75C19.0666 18.75 17.8208 18.375 17.4416 17.8125C17.3875 17.9375 17.3333 18 17.3333 18.125C17.3333 18.8125 18.7958 19.375 20.5833 19.375C22.3708 19.375 23.8333 18.8125 23.8333 18.125C23.8333 18 23.7791 17.9375 23.725 17.8125C23.3458 18.375 22.1 18.75 20.5833 18.75ZM20.5833 20.625C19.0666 20.625 17.8208 20.25 17.4416 19.6875C17.3875 19.8125 17.3333 19.875 17.3333 20C17.3333 20.6875 18.7958 21.25 20.5833 21.25C22.3708 21.25 23.8333 20.6875 23.8333 20C23.8333 19.875 23.7791 19.8125 23.725 19.6875C23.3458 20.25 22.1 20.625 20.5833 20.625ZM20.5833 22.5C19.0666 22.5 17.8208 22.125 17.4416 21.5625C17.3875 21.6875 17.3333 21.75 17.3333 21.875C17.3333 22.5625 18.7958 23.125 20.5833 23.125C22.3708 23.125 23.8333 22.5625 23.8333 21.875C23.8333 21.75 23.7791 21.6875 23.725 21.5625C23.3458 22.125 22.1 22.5 20.5833 22.5ZM20.5833 24.375C19.0666 24.375 17.8208 24 17.4416 23.4375C17.3875 23.5625 17.3333 23.625 17.3333 23.75C17.3333 24.4375 18.7958 25 20.5833 25C22.3708 25 23.8333 24.4375 23.8333 23.75C23.8333 23.625 23.7791 23.5625 23.725 23.4375C23.3458 24 22.1 24.375 20.5833 24.375Z" fill="#FFC107"/>
<path d="M5.41669 11.875C3.62919 11.875 2.16669 11.3125 2.16669 10.625V11.875C2.16669 12.5625 3.62919 13.125 5.41669 13.125C7.20419 13.125 8.66669 12.5625 8.66669 11.875V10.625C8.66669 11.3125 7.20419 11.875 5.41669 11.875Z" fill="#FFA000"/>
<path d="M5.41669 10C3.62919 10 2.16669 9.4375 2.16669 8.75V10C2.16669 10.6875 3.62919 11.25 5.41669 11.25C7.20419 11.25 8.66669 10.6875 8.66669 10V8.75C8.66669 9.4375 7.20419 10 5.41669 10ZM5.41669 13.75C3.62919 13.75 2.16669 13.1875 2.16669 12.5V13.75C2.16669 14.4375 3.62919 15 5.41669 15C7.20419 15 8.66669 14.4375 8.66669 13.75V12.5C8.66669 13.1875 7.20419 13.75 5.41669 13.75Z" fill="#FFA000"/>
<path d="M5.41669 15.625C3.62919 15.625 2.16669 15.0625 2.16669 14.375V15.625C2.16669 16.3125 3.62919 16.875 5.41669 16.875C7.20419 16.875 8.66669 16.3125 8.66669 15.625V14.375C8.66669 15.0625 7.20419 15.625 5.41669 15.625Z" fill="#FFA000"/>
<path d="M5.41669 17.5C3.62919 17.5 2.16669 16.9375 2.16669 16.25V17.5C2.16669 18.1875 3.62919 18.75 5.41669 18.75C7.20419 18.75 8.66669 18.1875 8.66669 17.5V16.25C8.66669 16.9375 7.20419 17.5 5.41669 17.5Z" fill="#FFA000"/>
<path d="M5.41669 19.375C3.62919 19.375 2.16669 18.8125 2.16669 18.125V19.375C2.16669 20.0625 3.62919 20.625 5.41669 20.625C7.20419 20.625 8.66669 20.0625 8.66669 19.375V18.125C8.66669 18.8125 7.20419 19.375 5.41669 19.375Z" fill="#FFA000"/>
<path d="M5.41669 21.25C3.62919 21.25 2.16669 20.6875 2.16669 20V21.25C2.16669 21.9375 3.62919 22.5 5.41669 22.5C7.20419 22.5 8.66669 21.9375 8.66669 21.25V20C8.66669 20.6875 7.20419 21.25 5.41669 21.25Z" fill="#FFA000"/>
<path d="M5.41669 23.125C3.62919 23.125 2.16669 22.5625 2.16669 21.875V23.125C2.16669 23.8125 3.62919 24.375 5.41669 24.375C7.20419 24.375 8.66669 23.8125 8.66669 23.125V21.875C8.66669 22.5625 7.20419 23.125 5.41669 23.125Z" fill="#FFA000"/>
<path d="M5.41669 25C3.62919 25 2.16669 24.4375 2.16669 23.75V25C2.16669 25.6875 3.62919 26.25 5.41669 26.25C7.20419 26.25 8.66669 25.6875 8.66669 25V23.75C8.66669 24.4375 7.20419 25 5.41669 25Z" fill="#FFA000"/>
<path d="M5.41669 10C7.21161 10 8.66669 9.44036 8.66669 8.75C8.66669 8.05964 7.21161 7.5 5.41669 7.5C3.62176 7.5 2.16669 8.05964 2.16669 8.75C2.16669 9.44036 3.62176 10 5.41669 10Z" fill="#FFC107"/>
<path d="M5.41669 11.25C3.90002 11.25 2.65419 10.875 2.27502 10.3125C2.22085 10.4375 2.16669 10.5 2.16669 10.625C2.16669 11.3125 3.62919 11.875 5.41669 11.875C7.20419 11.875 8.66669 11.3125 8.66669 10.625C8.66669 10.5 8.61252 10.4375 8.55835 10.3125C8.17919 10.875 6.93335 11.25 5.41669 11.25ZM5.41669 13.125C3.90002 13.125 2.65419 12.75 2.27502 12.1875C2.22085 12.3125 2.16669 12.375 2.16669 12.5C2.16669 13.1875 3.62919 13.75 5.41669 13.75C7.20419 13.75 8.66669 13.1875 8.66669 12.5C8.66669 12.375 8.61252 12.3125 8.55835 12.1875C8.17919 12.75 6.93335 13.125 5.41669 13.125ZM5.41669 15C3.90002 15 2.65419 14.625 2.27502 14.0625C2.22085 14.1875 2.16669 14.25 2.16669 14.375C2.16669 15.0625 3.62919 15.625 5.41669 15.625C7.20419 15.625 8.66669 15.0625 8.66669 14.375C8.66669 14.25 8.61252 14.1875 8.55835 14.0625C8.17919 14.625 6.93335 15 5.41669 15ZM5.41669 16.875C3.90002 16.875 2.65419 16.5 2.27502 15.9375C2.22085 16.0625 2.16669 16.125 2.16669 16.25C2.16669 16.9375 3.62919 17.5 5.41669 17.5C7.20419 17.5 8.66669 16.9375 8.66669 16.25C8.66669 16.125 8.61252 16.0625 8.55835 15.9375C8.17919 16.5 6.93335 16.875 5.41669 16.875ZM5.41669 18.75C3.90002 18.75 2.65419 18.375 2.27502 17.8125C2.22085 17.9375 2.16669 18 2.16669 18.125C2.16669 18.8125 3.62919 19.375 5.41669 19.375C7.20419 19.375 8.66669 18.8125 8.66669 18.125C8.66669 18 8.61252 17.9375 8.55835 17.8125C8.17919 18.375 6.93335 18.75 5.41669 18.75ZM5.41669 20.625C3.90002 20.625 2.65419 20.25 2.27502 19.6875C2.22085 19.8125 2.16669 19.875 2.16669 20C2.16669 20.6875 3.62919 21.25 5.41669 21.25C7.20419 21.25 8.66669 20.6875 8.66669 20C8.66669 19.875 8.61252 19.8125 8.55835 19.6875C8.17919 20.25 6.93335 20.625 5.41669 20.625ZM5.41669 22.5C3.90002 22.5 2.65419 22.125 2.27502 21.5625C2.22085 21.6875 2.16669 21.75 2.16669 21.875C2.16669 22.5625 3.62919 23.125 5.41669 23.125C7.20419 23.125 8.66669 22.5625 8.66669 21.875C8.66669 21.75 8.61252 21.6875 8.55835 21.5625C8.17919 22.125 6.93335 22.5 5.41669 22.5ZM5.41669 24.375C3.90002 24.375 2.65419 24 2.27502 23.4375C2.22085 23.5625 2.16669 23.625 2.16669 23.75C2.16669 24.4375 3.62919 25 5.41669 25C7.20419 25 8.66669 24.4375 8.66669 23.75C8.66669 23.625 8.61252 23.5625 8.55835 23.4375C8.17919 24 6.93335 24.375 5.41669 24.375Z" fill="#FFC107"/>
<path d="M13 17.5C11.2125 17.5 9.75 16.9375 9.75 16.25V17.5C9.75 18.1875 11.2125 18.75 13 18.75C14.7875 18.75 16.25 18.1875 16.25 17.5V16.25C16.25 16.9375 14.7875 17.5 13 17.5Z" fill="#FFA000"/>
<path d="M13 15.625C11.2125 15.625 9.75 15.0625 9.75 14.375V15.625C9.75 16.3125 11.2125 16.875 13 16.875C14.7875 16.875 16.25 16.3125 16.25 15.625V14.375C16.25 15.0625 14.7875 15.625 13 15.625ZM13 19.375C11.2125 19.375 9.75 18.8125 9.75 18.125V19.375C9.75 20.0625 11.2125 20.625 13 20.625C14.7875 20.625 16.25 20.0625 16.25 19.375V18.125C16.25 18.8125 14.7875 19.375 13 19.375Z" fill="#FFA000"/>
<path d="M13 21.25C11.2125 21.25 9.75 20.6875 9.75 20V21.25C9.75 21.9375 11.2125 22.5 13 22.5C14.7875 22.5 16.25 21.9375 16.25 21.25V20C16.25 20.6875 14.7875 21.25 13 21.25Z" fill="#FFA000"/>
<path d="M13 23.125C11.2125 23.125 9.75 22.5625 9.75 21.875V23.125C9.75 23.8125 11.2125 24.375 13 24.375C14.7875 24.375 16.25 23.8125 16.25 23.125V21.875C16.25 22.5625 14.7875 23.125 13 23.125Z" fill="#FFA000"/>
<path d="M13 25C11.2125 25 9.75 24.4375 9.75 23.75V25C9.75 25.6875 11.2125 26.25 13 26.25C14.7875 26.25 16.25 25.6875 16.25 25V23.75C16.25 24.4375 14.7875 25 13 25Z" fill="#FFA000"/>
<path d="M13 15.625C14.7949 15.625 16.25 15.0654 16.25 14.375C16.25 13.6846 14.7949 13.125 13 13.125C11.2051 13.125 9.75 13.6846 9.75 14.375C9.75 15.0654 11.2051 15.625 13 15.625Z" fill="#FFC107"/>
<path d="M13 16.875C11.4833 16.875 10.2375 16.5 9.85833 15.9375C9.80417 16.0625 9.75 16.125 9.75 16.25C9.75 16.9375 11.2125 17.5 13 17.5C14.7875 17.5 16.25 16.9375 16.25 16.25C16.25 16.125 16.1958 16.0625 16.1417 15.9375C15.7625 16.5 14.5167 16.875 13 16.875ZM13 18.75C11.4833 18.75 10.2375 18.375 9.85833 17.8125C9.80417 17.9375 9.75 18 9.75 18.125C9.75 18.8125 11.2125 19.375 13 19.375C14.7875 19.375 16.25 18.8125 16.25 18.125C16.25 18 16.1958 17.9375 16.1417 17.8125C15.7625 18.375 14.5167 18.75 13 18.75ZM13 20.625C11.4833 20.625 10.2375 20.25 9.85833 19.6875C9.80417 19.8125 9.75 19.875 9.75 20C9.75 20.6875 11.2125 21.25 13 21.25C14.7875 21.25 16.25 20.6875 16.25 20C16.25 19.875 16.1958 19.8125 16.1417 19.6875C15.7625 20.25 14.5167 20.625 13 20.625ZM13 22.5C11.4833 22.5 10.2375 22.125 9.85833 21.5625C9.80417 21.6875 9.75 21.75 9.75 21.875C9.75 22.5625 11.2125 23.125 13 23.125C14.7875 23.125 16.25 22.5625 16.25 21.875C16.25 21.75 16.1958 21.6875 16.1417 21.5625C15.7625 22.125 14.5167 22.5 13 22.5ZM13 24.375C11.4833 24.375 10.2375 24 9.85833 23.4375C9.80417 23.5625 9.75 23.625 9.75 23.75C9.75 24.4375 11.2125 25 13 25C14.7875 25 16.25 24.4375 16.25 23.75C16.25 23.625 16.1958 23.5625 16.1417 23.4375C15.7625 24 14.5167 24.375 13 24.375Z" fill="#FFC107"/>
</svg>
